<?xml version="1.0" encoding="UTF-8"?>
<!DOCTYPE svg PUBLIC "-//W3C//DTD SVG 1.1//EN" "http://www.w3.org/Graphics/SVG/1.1/DTD/svg11.dtd">
<svg xmlns="http://www.w3.org/2000/svg" version="1.1" width="512px" height="512px" style="shape-rendering:geometricPrecision; text-rendering:geometricPrecision; image-rendering:optimizeQuality; fill-rule:evenodd; clip-rule:evenodd" xmlns:xlink="http://www.w3.org/1999/xlink">
<g><path style="opacity:0.99" fill="#fea500" d="M 87.5,-0.5 C 153.833,-0.5 220.167,-0.5 286.5,-0.5C 312.377,6.54575 328.211,23.2124 334,49.5C 334.5,118.166 334.667,186.833 334.5,255.5C 354.938,253.486 373.938,257.653 391.5,268C 403.514,279.196 410.348,293.029 412,309.5C 413.129,330.489 414.129,351.489 415,372.5C 415.544,389.1 418.877,405.1 425,420.5C 430.262,430.713 438.429,434.213 449.5,431C 455.636,427.915 459.802,423.081 462,416.5C 467.603,398.614 470.603,380.28 471,361.5C 471.667,329.167 471.667,296.833 471,264.5C 458.304,251.47 445.304,238.804 432,226.5C 428,221.167 424,215.833 420,210.5C 416.799,204.898 414.799,198.898 414,192.5C 413.667,170.833 413.333,149.167 413,127.5C 395.029,108.528 376.695,89.8617 358,71.5C 351.351,61.3417 352.184,51.8417 360.5,43C 369.218,37.0115 377.884,37.0115 386.5,43C 420.756,76.2542 453.923,110.421 486,145.5C 497.607,158.057 506.107,172.39 511.5,188.5C 511.5,248.5 511.5,308.5 511.5,368.5C 510.314,386.284 507.481,403.951 503,421.5C 489.923,464.291 461.756,479.791 418.5,468C 399.542,457.959 387.375,442.459 382,421.5C 379.358,411.291 377.358,400.958 376,390.5C 374.089,369.88 373.089,349.214 373,328.5C 373.253,319.433 371.586,310.767 368,302.5C 366.363,300.19 364.196,298.69 361.5,298C 352.618,295.966 343.618,295.132 334.5,295.5C 334.5,354.167 334.5,412.833 334.5,471.5C 366.137,466.47 379.47,479.803 374.5,511.5C 249.5,511.5 124.5,511.5 -0.5,511.5C -0.5,502.833 -0.5,494.167 -0.5,485.5C 1.92064,479.911 5.92064,475.744 11.5,473C 20.4321,471.619 29.4321,471.119 38.5,471.5C 38.3333,331.166 38.5,190.833 39,50.5C 44.4764,23.1932 60.6431,6.19323 87.5,-0.5 Z M 93.5,39.5 C 155.501,39.3333 217.501,39.5 279.5,40C 287.444,42.277 292.278,47.4437 294,55.5C 294.667,97.1667 294.667,138.833 294,180.5C 291.901,187.598 287.401,192.432 280.5,195C 217.833,195.667 155.167,195.667 92.5,195C 84.6998,192.2 80.1998,186.7 79,178.5C 78.3333,137.833 78.3333,97.1667 79,56.5C 80.4719,47.8684 85.3052,42.2017 93.5,39.5 Z"/></g>
</svg>
